<svg xmlns="http://www.w3.org/2000/svg" width="1200" height="364" viewBox="0 0 1200 364" role="img" aria-label="Uji race condition: 12 checkout serentak atas stok 10 menghasilkan tepat 10 berhasil, 2 ditolak dengan kode 409, dan stok akhir 0.">
  <title>Fig. 3 — Uji race condition, 12 checkout atas stok 10</title>
  <defs>
    <filter id="ink" x="-20%" y="-20%" width="140%" height="140%">
      <feTurbulence type="fractalNoise" baseFrequency=".65" numOctaves="2" seed="11" result="n"/>
      <feColorMatrix in="n" type="matrix" values="0 0 0 0 0  0 0 0 0 0  0 0 0 0 0  -1.7 0 0 0 1.72" result="m"/>
      <feComposite in="SourceGraphic" in2="m" operator="in"/>
    </filter>
    <filter id="paper" x="-20%" y="-10%" width="140%" height="130%">
      <feDropShadow dx="0" dy="8" stdDeviation="9" flood-color="#17150f" flood-opacity=".1"/>
    </filter>
    <style>
      .serif { font-family: 'Iowan Old Style', 'Palatino Linotype', Palatino, 'Book Antiqua', Georgia, serif; }
      .sans  { font-family: 'Segoe UI', Inter, -apple-system, BlinkMacSystemFont, 'Helvetica Neue', Arial, sans-serif; }
      .mono  { font-family: 'SFMono-Regular', 'Cascadia Mono', Consolas, 'Liberation Mono', Menlo, monospace; }

      /* Tiket bergoyang pelan di rel */
      .sw { animation: sw 3.4s ease-in-out infinite; }
      @keyframes sw { 0%, 100% { transform: rotate(-1.6deg) } 50% { transform: rotate(1.6deg) } }
      [class^="s"]:not(.sw):not(.serif):not(.sans) { transform-box: fill-box; transform-origin: center; opacity: 0; }
      .panel { opacity: 0; }
      g[filter] { mix-blend-mode: multiply; }

      /* Satu linimasa 9 detik: tiket dicap berurutan, kardus stok diambil dari kanan */
      .s0{animation:s0 9s infinite}@keyframes s0{0%,6.67%{opacity:0;transform:scale(1.9)}8.22%{opacity:1;transform:scale(.94)}9.56%,90%{opacity:1;transform:scale(1)}95.56%,100%{opacity:0;transform:scale(1)}}
      .s1{animation:s1 9s infinite}@keyframes s1{0%,9.78%{opacity:0;transform:scale(1.9)}11.33%{opacity:1;transform:scale(.94)}12.67%,90%{opacity:1;transform:scale(1)}95.56%,100%{opacity:0;transform:scale(1)}}
      .s2{animation:s2 9s infinite}@keyframes s2{0%,12.89%{opacity:0;transform:scale(1.9)}14.44%{opacity:1;transform:scale(.94)}15.78%,90%{opacity:1;transform:scale(1)}95.56%,100%{opacity:0;transform:scale(1)}}
      .s3{animation:s3 9s infinite}@keyframes s3{0%,16%{opacity:0;transform:scale(1.9)}17.56%{opacity:1;transform:scale(.94)}18.89%,90%{opacity:1;transform:scale(1)}95.56%,100%{opacity:0;transform:scale(1)}}
      .s4{animation:s4 9s infinite}@keyframes s4{0%,19.11%{opacity:0;transform:scale(1.9)}20.67%{opacity:1;transform:scale(.94)}22%,90%{opacity:1;transform:scale(1)}95.56%,100%{opacity:0;transform:scale(1)}}
      .s5{animation:s5 9s infinite}@keyframes s5{0%,22.22%{opacity:0;transform:scale(1.9)}23.78%{opacity:1;transform:scale(.94)}25.11%,90%{opacity:1;transform:scale(1)}95.56%,100%{opacity:0;transform:scale(1)}}
      .s6{animation:s6 9s infinite}@keyframes s6{0%,25.33%{opacity:0;transform:scale(1.9)}26.89%{opacity:1;transform:scale(.94)}28.22%,90%{opacity:1;transform:scale(1)}95.56%,100%{opacity:0;transform:scale(1)}}
      .s7{animation:s7 9s infinite}@keyframes s7{0%,28.44%{opacity:0;transform:scale(1.9)}30%{opacity:1;transform:scale(.94)}31.33%,90%{opacity:1;transform:scale(1)}95.56%,100%{opacity:0;transform:scale(1)}}
      .s8{animation:s8 9s infinite}@keyframes s8{0%,31.56%{opacity:0;transform:scale(1.9)}33.11%{opacity:1;transform:scale(.94)}34.44%,90%{opacity:1;transform:scale(1)}95.56%,100%{opacity:0;transform:scale(1)}}
      .s9{animation:s9 9s infinite}@keyframes s9{0%,34.67%{opacity:0;transform:scale(1.9)}36.22%{opacity:1;transform:scale(.94)}37.56%,90%{opacity:1;transform:scale(1)}95.56%,100%{opacity:0;transform:scale(1)}}
      .s10{animation:s10 9s infinite}@keyframes s10{0%,37.78%{opacity:0;transform:scale(1.9)}39.33%{opacity:1;transform:scale(.94)}40.67%,90%{opacity:1;transform:scale(1)}95.56%,100%{opacity:0;transform:scale(1)}}
      .s11{animation:s11 9s infinite}@keyframes s11{0%,40.89%{opacity:0;transform:scale(1.9)}42.44%{opacity:1;transform:scale(.94)}43.78%,90%{opacity:1;transform:scale(1)}95.56%,100%{opacity:0;transform:scale(1)}}

      .q0{animation:q0 9s infinite}@keyframes q0{0%,6.67%{opacity:1}7.78%,90%{opacity:0}95.56%,100%{opacity:1}}
      .q1{animation:q1 9s infinite}@keyframes q1{0%,9.78%{opacity:1}10.89%,90%{opacity:0}95.56%,100%{opacity:1}}
      .q2{animation:q2 9s infinite}@keyframes q2{0%,12.89%{opacity:1}14%,90%{opacity:0}95.56%,100%{opacity:1}}
      .q3{animation:q3 9s infinite}@keyframes q3{0%,16%{opacity:1}17.11%,90%{opacity:0}95.56%,100%{opacity:1}}
      .q4{animation:q4 9s infinite}@keyframes q4{0%,19.11%{opacity:1}20.22%,90%{opacity:0}95.56%,100%{opacity:1}}
      .q5{animation:q5 9s infinite}@keyframes q5{0%,22.22%{opacity:1}23.33%,90%{opacity:0}95.56%,100%{opacity:1}}
      .q6{animation:q6 9s infinite}@keyframes q6{0%,25.33%{opacity:1}26.44%,90%{opacity:0}95.56%,100%{opacity:1}}
      .q7{animation:q7 9s infinite}@keyframes q7{0%,28.44%{opacity:1}29.56%,90%{opacity:0}95.56%,100%{opacity:1}}
      .q8{animation:q8 9s infinite}@keyframes q8{0%,31.56%{opacity:1}32.67%,90%{opacity:0}95.56%,100%{opacity:1}}
      .q9{animation:q9 9s infinite}@keyframes q9{0%,34.67%{opacity:1}35.78%,90%{opacity:0}95.56%,100%{opacity:1}}
      .q10{animation:q10 9s infinite}@keyframes q10{0%,37.78%{opacity:1}38.89%,90%{opacity:0}95.56%,100%{opacity:1}}
      .q11{animation:q11 9s infinite}@keyframes q11{0%,40.89%{opacity:1}42%,90%{opacity:0}95.56%,100%{opacity:1}}

      .k9{animation:k9 9s cubic-bezier(.5,0,.3,1) infinite}@keyframes k9{0%,6.67%{opacity:1;transform:none}10.56%,90%{opacity:0;transform:translateY(-16px)}95.56%,100%{opacity:1;transform:none}}
      .k8{animation:k8 9s cubic-bezier(.5,0,.3,1) infinite}@keyframes k8{0%,9.78%{opacity:1;transform:none}13.67%,90%{opacity:0;transform:translateY(-16px)}95.56%,100%{opacity:1;transform:none}}
      .k7{animation:k7 9s cubic-bezier(.5,0,.3,1) infinite}@keyframes k7{0%,12.89%{opacity:1;transform:none}16.78%,90%{opacity:0;transform:translateY(-16px)}95.56%,100%{opacity:1;transform:none}}
      .k6{animation:k6 9s cubic-bezier(.5,0,.3,1) infinite}@keyframes k6{0%,16%{opacity:1;transform:none}19.89%,90%{opacity:0;transform:translateY(-16px)}95.56%,100%{opacity:1;transform:none}}
      .k5{animation:k5 9s cubic-bezier(.5,0,.3,1) infinite}@keyframes k5{0%,19.11%{opacity:1;transform:none}23%,90%{opacity:0;transform:translateY(-16px)}95.56%,100%{opacity:1;transform:none}}
      .k4{animation:k4 9s cubic-bezier(.5,0,.3,1) infinite}@keyframes k4{0%,22.22%{opacity:1;transform:none}26.11%,90%{opacity:0;transform:translateY(-16px)}95.56%,100%{opacity:1;transform:none}}
      .k3{animation:k3 9s cubic-bezier(.5,0,.3,1) infinite}@keyframes k3{0%,25.33%{opacity:1;transform:none}29.22%,90%{opacity:0;transform:translateY(-16px)}95.56%,100%{opacity:1;transform:none}}
      .k2{animation:k2 9s cubic-bezier(.5,0,.3,1) infinite}@keyframes k2{0%,28.44%{opacity:1;transform:none}32.33%,90%{opacity:0;transform:translateY(-16px)}95.56%,100%{opacity:1;transform:none}}
      .k1{animation:k1 9s cubic-bezier(.5,0,.3,1) infinite}@keyframes k1{0%,31.56%{opacity:1;transform:none}35.44%,90%{opacity:0;transform:translateY(-16px)}95.56%,100%{opacity:1;transform:none}}
      .k0{animation:k0 9s cubic-bezier(.5,0,.3,1) infinite}@keyframes k0{0%,34.67%{opacity:1;transform:none}38.56%,90%{opacity:0;transform:translateY(-16px)}95.56%,100%{opacity:1;transform:none}}

      .panel{animation:panel 9s ease-out infinite}@keyframes panel{0%,46.44%{opacity:0}50.89%,90%{opacity:1}95.56%,100%{opacity:0}}
      .wait{animation:wait 9s ease-out infinite}@keyframes wait{0%,45.33%{opacity:1}48.67%,91.11%{opacity:0}97.78%,100%{opacity:1}}

      @media (prefers-reduced-motion: reduce) {
        * { animation: none !important; }
        [class^="s"]:not(.sw):not(.serif):not(.sans), .panel { opacity: 1 !important; }
        [class^="k"], [class^="q"], .wait { opacity: 0 !important; }
      }
    </style>
  </defs>

  <rect width="1200" height="364" rx="20" fill="#faf8f4"/>
  <rect x=".5" y=".5" width="1199" height="363" rx="19.5" fill="none" stroke="#e4dfd4"/>

  <rect x="48" y="38" width="8" height="8" fill="#ec2a3f"/>
  <text class="mono" x="66" y="46" font-size="11.5" font-weight="700" fill="#17150f" letter-spacing="2.4">FIG. 3 — UJI RACE CONDITION</text>
  <text class="mono" x="1152" y="46" font-size="11" fill="#857f73" letter-spacing="1.4" text-anchor="end">firestore emulator · npm run test:emulator</text>
  <line x1="48" y1="64" x2="1152" y2="64" stroke="#e4dfd4"/>
  <text class="serif" x="48" y="104" font-size="28" fill="#17150f">12 orang checkout barengan, stoknya cuma <tspan font-style="italic" fill="#ec2a3f">sepuluh.</tspan></text>

  <!-- rel tiket -->
  <line x1="40" y1="128" x2="918" y2="128" stroke="#17150f" stroke-width="2" stroke-linecap="round"/>
  <circle cx="40" cy="128" r="4" fill="#17150f"/><circle cx="918" cy="128" r="4" fill="#17150f"/>

  <g class="sw" style="transform-origin:77px 128px;animation-delay:-0.00s"><line x1="77" y1="128" x2="77" y2="141" stroke="#17150f" stroke-opacity=".5"/><rect x="48" y="136" width="58" height="80" rx="4" fill="#fff" stroke="#ddd7ca"/><circle cx="77" cy="144" r="3" fill="#faf8f4" stroke="#ddd7ca"/><text class="mono" x="77" y="162" font-size="8.5" fill="#857f73" text-anchor="middle" letter-spacing="1.5">NO.</text><text class="serif" x="77" y="186" font-size="22" fill="#17150f" text-anchor="middle">01</text><line x1="54" y1="196" x2="100" y2="196" stroke="#17150f" stroke-opacity=".25" stroke-dasharray="2 3"/><text class="mono q0" x="77" y="209" font-size="8" fill="#857f73" text-anchor="middle" letter-spacing="1.2">ANTRE</text><g transform="translate(77 180) rotate(-12)"><g class="s0" filter="url(#ink)"><circle r="16" fill="none" stroke="#16895c" stroke-width="2"/><circle r="12.5" fill="none" stroke="#16895c" stroke-width=".8"/><path d="M-6 .5l4 4 8-8.5" fill="none" stroke="#16895c" stroke-width="2.4" stroke-linecap="round" stroke-linejoin="round"/></g></g></g>
  <g class="sw" style="transform-origin:149.8px 128px;animation-delay:-0.41s"><line x1="149.8" y1="128" x2="149.8" y2="141" stroke="#17150f" stroke-opacity=".5"/><rect x="120.8" y="136" width="58" height="80" rx="4" fill="#fff" stroke="#ddd7ca"/><circle cx="149.8" cy="144" r="3" fill="#faf8f4" stroke="#ddd7ca"/><text class="mono" x="149.8" y="162" font-size="8.5" fill="#857f73" text-anchor="middle" letter-spacing="1.5">NO.</text><text class="serif" x="149.8" y="186" font-size="22" fill="#17150f" text-anchor="middle">02</text><line x1="126.8" y1="196" x2="172.8" y2="196" stroke="#17150f" stroke-opacity=".25" stroke-dasharray="2 3"/><text class="mono q1" x="149.8" y="209" font-size="8" fill="#857f73" text-anchor="middle" letter-spacing="1.2">ANTRE</text><g transform="translate(149.8 180) rotate(-12)"><g class="s1" filter="url(#ink)"><circle r="16" fill="none" stroke="#16895c" stroke-width="2"/><circle r="12.5" fill="none" stroke="#16895c" stroke-width=".8"/><path d="M-6 .5l4 4 8-8.5" fill="none" stroke="#16895c" stroke-width="2.4" stroke-linecap="round" stroke-linejoin="round"/></g></g></g>
  <g class="sw" style="transform-origin:222.6px 128px;animation-delay:-0.82s"><line x1="222.6" y1="128" x2="222.6" y2="141" stroke="#17150f" stroke-opacity=".5"/><rect x="193.6" y="136" width="58" height="80" rx="4" fill="#fff" stroke="#ddd7ca"/><circle cx="222.6" cy="144" r="3" fill="#faf8f4" stroke="#ddd7ca"/><text class="mono" x="222.6" y="162" font-size="8.5" fill="#857f73" text-anchor="middle" letter-spacing="1.5">NO.</text><text class="serif" x="222.6" y="186" font-size="22" fill="#17150f" text-anchor="middle">03</text><line x1="199.6" y1="196" x2="245.6" y2="196" stroke="#17150f" stroke-opacity=".25" stroke-dasharray="2 3"/><text class="mono q2" x="222.6" y="209" font-size="8" fill="#857f73" text-anchor="middle" letter-spacing="1.2">ANTRE</text><g transform="translate(222.6 180) rotate(-12)"><g class="s2" filter="url(#ink)"><circle r="16" fill="none" stroke="#16895c" stroke-width="2"/><circle r="12.5" fill="none" stroke="#16895c" stroke-width=".8"/><path d="M-6 .5l4 4 8-8.5" fill="none" stroke="#16895c" stroke-width="2.4" stroke-linecap="round" stroke-linejoin="round"/></g></g></g>
  <g class="sw" style="transform-origin:295.4px 128px;animation-delay:-1.23s"><line x1="295.4" y1="128" x2="295.4" y2="141" stroke="#17150f" stroke-opacity=".5"/><rect x="266.4" y="136" width="58" height="80" rx="4" fill="#fff" stroke="#ddd7ca"/><circle cx="295.4" cy="144" r="3" fill="#faf8f4" stroke="#ddd7ca"/><text class="mono" x="295.4" y="162" font-size="8.5" fill="#857f73" text-anchor="middle" letter-spacing="1.5">NO.</text><text class="serif" x="295.4" y="186" font-size="22" fill="#17150f" text-anchor="middle">04</text><line x1="272.4" y1="196" x2="318.4" y2="196" stroke="#17150f" stroke-opacity=".25" stroke-dasharray="2 3"/><text class="mono q3" x="295.4" y="209" font-size="8" fill="#857f73" text-anchor="middle" letter-spacing="1.2">ANTRE</text><g transform="translate(295.4 180) rotate(-12)"><g class="s3" filter="url(#ink)"><circle r="16" fill="none" stroke="#16895c" stroke-width="2"/><circle r="12.5" fill="none" stroke="#16895c" stroke-width=".8"/><path d="M-6 .5l4 4 8-8.5" fill="none" stroke="#16895c" stroke-width="2.4" stroke-linecap="round" stroke-linejoin="round"/></g></g></g>
  <g class="sw" style="transform-origin:368.2px 128px;animation-delay:-1.64s"><line x1="368.2" y1="128" x2="368.2" y2="141" stroke="#17150f" stroke-opacity=".5"/><rect x="339.2" y="136" width="58" height="80" rx="4" fill="#fff" stroke="#ddd7ca"/><circle cx="368.2" cy="144" r="3" fill="#faf8f4" stroke="#ddd7ca"/><text class="mono" x="368.2" y="162" font-size="8.5" fill="#857f73" text-anchor="middle" letter-spacing="1.5">NO.</text><text class="serif" x="368.2" y="186" font-size="22" fill="#17150f" text-anchor="middle">05</text><line x1="345.2" y1="196" x2="391.2" y2="196" stroke="#17150f" stroke-opacity=".25" stroke-dasharray="2 3"/><text class="mono q4" x="368.2" y="209" font-size="8" fill="#857f73" text-anchor="middle" letter-spacing="1.2">ANTRE</text><g transform="translate(368.2 180) rotate(-12)"><g class="s4" filter="url(#ink)"><circle r="16" fill="none" stroke="#16895c" stroke-width="2"/><circle r="12.5" fill="none" stroke="#16895c" stroke-width=".8"/><path d="M-6 .5l4 4 8-8.5" fill="none" stroke="#16895c" stroke-width="2.4" stroke-linecap="round" stroke-linejoin="round"/></g></g></g>
  <g class="sw" style="transform-origin:441px 128px;animation-delay:-2.05s"><line x1="441" y1="128" x2="441" y2="141" stroke="#17150f" stroke-opacity=".5"/><rect x="412" y="136" width="58" height="80" rx="4" fill="#fff" stroke="#ddd7ca"/><circle cx="441" cy="144" r="3" fill="#faf8f4" stroke="#ddd7ca"/><text class="mono" x="441" y="162" font-size="8.5" fill="#857f73" text-anchor="middle" letter-spacing="1.5">NO.</text><text class="serif" x="441" y="186" font-size="22" fill="#17150f" text-anchor="middle">06</text><line x1="418" y1="196" x2="464" y2="196" stroke="#17150f" stroke-opacity=".25" stroke-dasharray="2 3"/><text class="mono q5" x="441" y="209" font-size="8" fill="#857f73" text-anchor="middle" letter-spacing="1.2">ANTRE</text><g transform="translate(441 180) rotate(-12)"><g class="s5" filter="url(#ink)"><circle r="16" fill="none" stroke="#16895c" stroke-width="2"/><circle r="12.5" fill="none" stroke="#16895c" stroke-width=".8"/><path d="M-6 .5l4 4 8-8.5" fill="none" stroke="#16895c" stroke-width="2.4" stroke-linecap="round" stroke-linejoin="round"/></g></g></g>
  <g class="sw" style="transform-origin:513.8px 128px;animation-delay:-2.46s"><line x1="513.8" y1="128" x2="513.8" y2="141" stroke="#17150f" stroke-opacity=".5"/><rect x="484.8" y="136" width="58" height="80" rx="4" fill="#fff" stroke="#ddd7ca"/><circle cx="513.8" cy="144" r="3" fill="#faf8f4" stroke="#ddd7ca"/><text class="mono" x="513.8" y="162" font-size="8.5" fill="#857f73" text-anchor="middle" letter-spacing="1.5">NO.</text><text class="serif" x="513.8" y="186" font-size="22" fill="#17150f" text-anchor="middle">07</text><line x1="490.8" y1="196" x2="536.8" y2="196" stroke="#17150f" stroke-opacity=".25" stroke-dasharray="2 3"/><text class="mono q6" x="513.8" y="209" font-size="8" fill="#857f73" text-anchor="middle" letter-spacing="1.2">ANTRE</text><g transform="translate(513.8 180) rotate(-12)"><g class="s6" filter="url(#ink)"><circle r="16" fill="none" stroke="#16895c" stroke-width="2"/><circle r="12.5" fill="none" stroke="#16895c" stroke-width=".8"/><path d="M-6 .5l4 4 8-8.5" fill="none" stroke="#16895c" stroke-width="2.4" stroke-linecap="round" stroke-linejoin="round"/></g></g></g>
  <g class="sw" style="transform-origin:586.6px 128px;animation-delay:-2.87s"><line x1="586.6" y1="128" x2="586.6" y2="141" stroke="#17150f" stroke-opacity=".5"/><rect x="557.6" y="136" width="58" height="80" rx="4" fill="#fff" stroke="#ddd7ca"/><circle cx="586.6" cy="144" r="3" fill="#faf8f4" stroke="#ddd7ca"/><text class="mono" x="586.6" y="162" font-size="8.5" fill="#857f73" text-anchor="middle" letter-spacing="1.5">NO.</text><text class="serif" x="586.6" y="186" font-size="22" fill="#17150f" text-anchor="middle">08</text><line x1="563.6" y1="196" x2="609.6" y2="196" stroke="#17150f" stroke-opacity=".25" stroke-dasharray="2 3"/><text class="mono q7" x="586.6" y="209" font-size="8" fill="#857f73" text-anchor="middle" letter-spacing="1.2">ANTRE</text><g transform="translate(586.6 180) rotate(-12)"><g class="s7" filter="url(#ink)"><circle r="16" fill="none" stroke="#16895c" stroke-width="2"/><circle r="12.5" fill="none" stroke="#16895c" stroke-width=".8"/><path d="M-6 .5l4 4 8-8.5" fill="none" stroke="#16895c" stroke-width="2.4" stroke-linecap="round" stroke-linejoin="round"/></g></g></g>
  <g class="sw" style="transform-origin:659.4px 128px;animation-delay:-3.28s"><line x1="659.4" y1="128" x2="659.4" y2="141" stroke="#17150f" stroke-opacity=".5"/><rect x="630.4" y="136" width="58" height="80" rx="4" fill="#fff" stroke="#ddd7ca"/><circle cx="659.4" cy="144" r="3" fill="#faf8f4" stroke="#ddd7ca"/><text class="mono" x="659.4" y="162" font-size="8.5" fill="#857f73" text-anchor="middle" letter-spacing="1.5">NO.</text><text class="serif" x="659.4" y="186" font-size="22" fill="#17150f" text-anchor="middle">09</text><line x1="636.4" y1="196" x2="682.4" y2="196" stroke="#17150f" stroke-opacity=".25" stroke-dasharray="2 3"/><text class="mono q8" x="659.4" y="209" font-size="8" fill="#857f73" text-anchor="middle" letter-spacing="1.2">ANTRE</text><g transform="translate(659.4 180) rotate(-12)"><g class="s8" filter="url(#ink)"><circle r="16" fill="none" stroke="#16895c" stroke-width="2"/><circle r="12.5" fill="none" stroke="#16895c" stroke-width=".8"/><path d="M-6 .5l4 4 8-8.5" fill="none" stroke="#16895c" stroke-width="2.4" stroke-linecap="round" stroke-linejoin="round"/></g></g></g>
  <g class="sw" style="transform-origin:732.2px 128px;animation-delay:-3.69s"><line x1="732.2" y1="128" x2="732.2" y2="141" stroke="#17150f" stroke-opacity=".5"/><rect x="703.2" y="136" width="58" height="80" rx="4" fill="#fff" stroke="#ddd7ca"/><circle cx="732.2" cy="144" r="3" fill="#faf8f4" stroke="#ddd7ca"/><text class="mono" x="732.2" y="162" font-size="8.5" fill="#857f73" text-anchor="middle" letter-spacing="1.5">NO.</text><text class="serif" x="732.2" y="186" font-size="22" fill="#17150f" text-anchor="middle">10</text><line x1="709.2" y1="196" x2="755.2" y2="196" stroke="#17150f" stroke-opacity=".25" stroke-dasharray="2 3"/><text class="mono q9" x="732.2" y="209" font-size="8" fill="#857f73" text-anchor="middle" letter-spacing="1.2">ANTRE</text><g transform="translate(732.2 180) rotate(-12)"><g class="s9" filter="url(#ink)"><circle r="16" fill="none" stroke="#16895c" stroke-width="2"/><circle r="12.5" fill="none" stroke="#16895c" stroke-width=".8"/><path d="M-6 .5l4 4 8-8.5" fill="none" stroke="#16895c" stroke-width="2.4" stroke-linecap="round" stroke-linejoin="round"/></g></g></g>
  <g class="sw" style="transform-origin:805px 128px;animation-delay:-4.10s"><line x1="805" y1="128" x2="805" y2="141" stroke="#17150f" stroke-opacity=".5"/><rect x="776" y="136" width="58" height="80" rx="4" fill="#fff" stroke="#ddd7ca"/><circle cx="805" cy="144" r="3" fill="#faf8f4" stroke="#ddd7ca"/><text class="mono" x="805" y="162" font-size="8.5" fill="#857f73" text-anchor="middle" letter-spacing="1.5">NO.</text><text class="serif" x="805" y="186" font-size="22" fill="#17150f" text-anchor="middle">11</text><line x1="782" y1="196" x2="828" y2="196" stroke="#17150f" stroke-opacity=".25" stroke-dasharray="2 3"/><text class="mono q10" x="805" y="209" font-size="8" fill="#857f73" text-anchor="middle" letter-spacing="1.2">ANTRE</text><g transform="translate(805 180) rotate(-10)"><g class="s10" filter="url(#ink)"><rect x="-24" y="-11" width="48" height="22" rx="3" fill="none" stroke="#ec2a3f" stroke-width="2"/><text class="sans" y="5" font-size="13" font-weight="900" fill="#ec2a3f" text-anchor="middle" letter-spacing="1.5">409</text></g></g></g>
  <g class="sw" style="transform-origin:877.8px 128px;animation-delay:-4.51s"><line x1="877.8" y1="128" x2="877.8" y2="141" stroke="#17150f" stroke-opacity=".5"/><rect x="848.8" y="136" width="58" height="80" rx="4" fill="#fff" stroke="#ddd7ca"/><circle cx="877.8" cy="144" r="3" fill="#faf8f4" stroke="#ddd7ca"/><text class="mono" x="877.8" y="162" font-size="8.5" fill="#857f73" text-anchor="middle" letter-spacing="1.5">NO.</text><text class="serif" x="877.8" y="186" font-size="22" fill="#17150f" text-anchor="middle">12</text><line x1="854.8" y1="196" x2="900.8" y2="196" stroke="#17150f" stroke-opacity=".25" stroke-dasharray="2 3"/><text class="mono q11" x="877.8" y="209" font-size="8" fill="#857f73" text-anchor="middle" letter-spacing="1.2">ANTRE</text><g transform="translate(877.8 180) rotate(-10)"><g class="s11" filter="url(#ink)"><rect x="-24" y="-11" width="48" height="22" rx="3" fill="none" stroke="#ec2a3f" stroke-width="2"/><text class="sans" y="5" font-size="13" font-weight="900" fill="#ec2a3f" text-anchor="middle" letter-spacing="1.5">409</text></g></g></g>

  <!-- rak stok -->
  <rect x="69.2" y="248" width="44" height="34" rx="2" fill="none" stroke="#b9a57f" stroke-opacity=".5" stroke-dasharray="3 3"/><g class="k0"><rect x="69.2" y="248" width="44" height="34" rx="2" fill="#eadfc8" stroke="#b39d74"/><rect x="87.7" y="248" width="7" height="34" fill="#d7c49e"/><line x1="69.2" y1="257" x2="113.2" y2="257" stroke="#b39d74" stroke-opacity=".6"/></g>
  <rect x="155.6" y="248" width="44" height="34" rx="2" fill="none" stroke="#b9a57f" stroke-opacity=".5" stroke-dasharray="3 3"/><g class="k1"><rect x="155.6" y="248" width="44" height="34" rx="2" fill="#eadfc8" stroke="#b39d74"/><rect x="174.1" y="248" width="7" height="34" fill="#d7c49e"/><line x1="155.6" y1="257" x2="199.6" y2="257" stroke="#b39d74" stroke-opacity=".6"/></g>
  <rect x="242" y="248" width="44" height="34" rx="2" fill="none" stroke="#b9a57f" stroke-opacity=".5" stroke-dasharray="3 3"/><g class="k2"><rect x="242" y="248" width="44" height="34" rx="2" fill="#eadfc8" stroke="#b39d74"/><rect x="260.5" y="248" width="7" height="34" fill="#d7c49e"/><line x1="242" y1="257" x2="286" y2="257" stroke="#b39d74" stroke-opacity=".6"/></g>
  <rect x="328.4" y="248" width="44" height="34" rx="2" fill="none" stroke="#b9a57f" stroke-opacity=".5" stroke-dasharray="3 3"/><g class="k3"><rect x="328.4" y="248" width="44" height="34" rx="2" fill="#eadfc8" stroke="#b39d74"/><rect x="346.9" y="248" width="7" height="34" fill="#d7c49e"/><line x1="328.4" y1="257" x2="372.4" y2="257" stroke="#b39d74" stroke-opacity=".6"/></g>
  <rect x="414.8" y="248" width="44" height="34" rx="2" fill="none" stroke="#b9a57f" stroke-opacity=".5" stroke-dasharray="3 3"/><g class="k4"><rect x="414.8" y="248" width="44" height="34" rx="2" fill="#eadfc8" stroke="#b39d74"/><rect x="433.3" y="248" width="7" height="34" fill="#d7c49e"/><line x1="414.8" y1="257" x2="458.8" y2="257" stroke="#b39d74" stroke-opacity=".6"/></g>
  <rect x="501.2" y="248" width="44" height="34" rx="2" fill="none" stroke="#b9a57f" stroke-opacity=".5" stroke-dasharray="3 3"/><g class="k5"><rect x="501.2" y="248" width="44" height="34" rx="2" fill="#eadfc8" stroke="#b39d74"/><rect x="519.7" y="248" width="7" height="34" fill="#d7c49e"/><line x1="501.2" y1="257" x2="545.2" y2="257" stroke="#b39d74" stroke-opacity=".6"/></g>
  <rect x="587.6" y="248" width="44" height="34" rx="2" fill="none" stroke="#b9a57f" stroke-opacity=".5" stroke-dasharray="3 3"/><g class="k6"><rect x="587.6" y="248" width="44" height="34" rx="2" fill="#eadfc8" stroke="#b39d74"/><rect x="606.1" y="248" width="7" height="34" fill="#d7c49e"/><line x1="587.6" y1="257" x2="631.6" y2="257" stroke="#b39d74" stroke-opacity=".6"/></g>
  <rect x="674" y="248" width="44" height="34" rx="2" fill="none" stroke="#b9a57f" stroke-opacity=".5" stroke-dasharray="3 3"/><g class="k7"><rect x="674" y="248" width="44" height="34" rx="2" fill="#eadfc8" stroke="#b39d74"/><rect x="692.5" y="248" width="7" height="34" fill="#d7c49e"/><line x1="674" y1="257" x2="718" y2="257" stroke="#b39d74" stroke-opacity=".6"/></g>
  <rect x="760.4" y="248" width="44" height="34" rx="2" fill="none" stroke="#b9a57f" stroke-opacity=".5" stroke-dasharray="3 3"/><g class="k8"><rect x="760.4" y="248" width="44" height="34" rx="2" fill="#eadfc8" stroke="#b39d74"/><rect x="778.9" y="248" width="7" height="34" fill="#d7c49e"/><line x1="760.4" y1="257" x2="804.4" y2="257" stroke="#b39d74" stroke-opacity=".6"/></g>
  <rect x="846.8" y="248" width="44" height="34" rx="2" fill="none" stroke="#b9a57f" stroke-opacity=".5" stroke-dasharray="3 3"/><g class="k9"><rect x="846.8" y="248" width="44" height="34" rx="2" fill="#eadfc8" stroke="#b39d74"/><rect x="865.3" y="248" width="7" height="34" fill="#d7c49e"/><line x1="846.8" y1="257" x2="890.8" y2="257" stroke="#b39d74" stroke-opacity=".6"/></g>
  <line x1="48" y1="283" x2="912" y2="283" stroke="#17150f" stroke-width="2" stroke-linecap="round"/>
  <path d="M96 284l10 12M864 284l-10 12" stroke="#17150f" stroke-width="1.6" stroke-linecap="round"/>
  <text class="mono" x="48" y="312" font-size="10.5" fill="#857f73" letter-spacing="1.8">STOK DI RAK: 10</text>

  <!-- struk hasil -->
  <path filter="url(#paper)" fill="#fff" d="M950 128 H1152 V300 L1145.7 307 L1139.4 300 L1133.1 307 L1126.8 300 L1120.4 307 L1114.1 300 L1107.8 307 L1101.5 300 L1095.2 307 L1088.9 300 L1082.6 307 L1076.3 300 L1069.9 307 L1063.6 300 L1057.3 307 L1051 300 L1044.7 307 L1038.4 300 L1032.1 307 L1025.8 300 L1019.4 307 L1013.1 300 L1006.8 307 L1000.5 300 L994.2 307 L987.9 300 L981.6 307 L975.3 300 L968.9 307 L962.6 300 L956.3 307 L950 300 Z"/>
  <g class="mono" fill="#17150f">
    <text x="1051" y="154" font-size="11" font-weight="800" text-anchor="middle" letter-spacing="2.4">HASIL UJI</text>
    <line x1="966" y1="166" x2="1136" y2="166" stroke="#17150f" stroke-opacity=".35" stroke-dasharray="3 4"/>
    <g font-size="11.5" fill="#4a463e">
      <text x="966" y="192">berhasil</text>
      <text x="966" y="218">ditolak</text>
      <text x="966" y="244">sisa stok</text>
    </g>
    <g stroke="#17150f" stroke-opacity=".3" stroke-dasharray="1 3">
      <line x1="1028" y1="189" x2="1118" y2="189"/><line x1="1020" y1="215" x2="1118" y2="215"/><line x1="1044" y1="241" x2="1118" y2="241"/>
    </g>
    <g class="wait" font-size="12" fill="#857f73" text-anchor="end">
      <text x="1136" y="192">…</text><text x="1136" y="218">…</text><text x="1136" y="244">…</text>
    </g>
    <g class="panel" font-size="13" font-weight="800" text-anchor="end">
      <text x="1136" y="192" fill="#16895c">10</text>
      <text x="1136" y="218" fill="#ec2a3f">2</text>
      <text x="1136" y="244" fill="#17150f">0</text>
    </g>
    <line x1="966" y1="258" x2="1136" y2="258" stroke="#17150f" stroke-opacity=".35" stroke-dasharray="3 4"/>
    <text class="wait" x="1051" y="284" font-size="10" fill="#857f73" text-anchor="middle" letter-spacing="1.6">LAGI DIPROSES…</text>
    <text class="panel" x="1051" y="284" font-size="10" font-weight="800" fill="#16895c" text-anchor="middle" letter-spacing="1.6">✓ AMAN, NGGAK ADA YG MINUS</text>
  </g>

  <text class="sans" x="48" y="342" font-size="13" fill="#857f73">Tiap checkout baca dan potong stok di dalam satu <tspan class="mono" fill="#17150f">runTransaction</tspan>, jadi dua kasir nggak mungkin jual barang yang sama.</text>
</svg>
